<svg width="440" height="133" viewBox="0 0 440 133" fill="none" xmlns="http://www.w3.org/2000/svg">
<g clip-path="url(#clip0_34_41)">
<path d="M141.004 97.528H172.236V107H129.356V17.784H141.004V97.528ZM239.646 69.24C239.646 71.4587 239.518 73.8053 239.262 76.28H183.198C183.625 83.192 185.971 88.6107 190.238 92.536C194.59 96.376 199.838 98.296 205.982 98.296C211.017 98.296 215.198 97.144 218.526 94.84C221.939 92.4507 224.329 89.2933 225.694 85.368H238.238C236.361 92.1093 232.606 97.6133 226.974 101.88C221.342 106.061 214.345 108.152 205.982 108.152C199.326 108.152 193.353 106.659 188.062 103.672C182.857 100.685 178.761 96.4613 175.774 91C172.787 85.4533 171.294 79.0533 171.294 71.8C171.294 64.5467 172.745 58.1893 175.646 52.728C178.547 47.2667 182.601 43.0853 187.806 40.184C193.097 37.1973 199.155 35.704 205.982 35.704C212.638 35.704 218.526 37.1547 223.646 40.056C228.766 42.9573 232.691 46.968 235.422 52.088C238.238 57.1227 239.646 62.84 239.646 69.24ZM227.614 66.808C227.614 62.3707 226.633 58.5733 224.67 55.416C222.707 52.1733 220.019 49.7413 216.606 48.12C213.278 46.4133 209.566 45.56 205.47 45.56C199.582 45.56 194.547 47.4373 190.366 51.192C186.27 54.9467 183.923 60.152 183.326 66.808H227.614ZM276.269 107L259.629 80.888L243.629 107H231.469L254.125 72.184L231.469 36.856H244.653L261.293 62.84L277.165 36.856H289.325L266.797 71.544L289.453 107H276.269ZM354.159 36.856V107H342.511V96.632C340.292 100.216 337.178 103.032 333.167 105.08C329.242 107.043 324.89 108.024 320.111 108.024C314.65 108.024 309.743 106.915 305.391 104.696C301.039 102.392 297.583 98.9787 295.023 94.456C292.548 89.9333 291.311 84.4293 291.311 77.944V36.856H302.831V76.408C302.831 83.32 304.58 88.6533 308.079 92.408C311.578 96.0773 316.356 97.912 322.415 97.912C328.644 97.912 333.551 95.992 337.135 92.152C340.719 88.312 342.511 82.7227 342.511 75.384V36.856H354.159ZM395.202 35.576C403.735 35.576 410.647 38.1787 415.938 43.384C421.229 48.504 423.874 55.928 423.874 65.656V107H412.354V67.32C412.354 60.3227 410.605 54.9893 407.106 51.32C403.607 47.5653 398.829 45.688 392.77 45.688C386.626 45.688 381.719 47.608 378.05 51.448C374.466 55.288 372.674 60.8773 372.674 68.216V107H361.026V36.856H372.674V46.84C374.978 43.256 378.093 40.4827 382.018 38.52C386.029 36.5573 390.423 35.576 395.202 35.576Z" fill="#252525"/>
<path d="M231.24 37H245L289.5 107H276.5L231.24 37Z" fill="url(#paint0_linear_34_41)"/>
<circle cx="59" cy="64" r="47" fill="#2C2A8B"/>
<mask id="mask0_34_41" style="mask-type:alpha" maskUnits="userSpaceOnUse" x="12" y="17" width="94" height="94">
<rect x="12" y="17" width="94" height="94" rx="47" fill="#00747A"/>
</mask>
<g mask="url(#mask0_34_41)">
<path d="M63 17C63 14.2386 65.2386 12 68 12H73.5647C76.3262 12 78.5647 14.2385 78.5648 17L78.5653 75.4466C78.5653 78.208 80.8039 80.4465 83.5653 80.4465H103C105.761 80.4465 108 82.6851 108 85.4465V91C108 93.7614 105.761 96 103 96H68.0006C65.2392 96 63.0006 93.7614 63.0006 91L63 17Z" fill="white"/>
<path d="M52.9999 42C52.9999 39.2386 50.7613 37 47.9999 37H42.6222C39.8608 37 37.6222 39.2386 37.6222 42L37.6223 73.7552C37.6223 76.5166 35.3837 78.7552 32.6223 78.7552H14C11.2386 78.7552 9 80.9938 9 83.7552V89C9 91.7614 11.2386 94 14 94H48C50.7614 94 53 91.7614 53 89L52.9999 42Z" fill="white"/>
</g>
</g>
<defs>
<linearGradient id="paint0_linear_34_41" x1="260.37" y1="37" x2="260.37" y2="107" gradientUnits="userSpaceOnUse">
<stop stop-color="#272727"/>
<stop offset="1" stop-color="#302DAE"/>
</linearGradient>
<clipPath id="clip0_34_41">
<rect width="440" height="133" fill="white"/>
</clipPath>
</defs>
</svg>
